<?xml version="1.0" encoding="UTF-8"?><svg xmlns="http://www.w3.org/2000/svg" xmlns:xlink="http://www.w3.org/1999/xlink" height="226.8" preserveAspectRatio="xMidYMid meet" version="1.1" viewBox="102.4 99.2 220.4 226.8" width="220.4" zoomAndPan="magnify">
 <g id="surface1">
  <g id="change1_1"><path d="m200.93 163.71c-1.86 0-3.37-1.51-3.37-3.37v-31.74c0-12.49-10.16-22.65-22.65-22.65s-22.66 10.16-22.66 22.65v31.74c0 1.86-1.5 3.37-3.36 3.37s-3.37-1.51-3.37-3.37v-31.74c0-16.2 13.18-29.385 29.39-29.385 16.2 0 29.39 13.185 29.39 29.385v31.74c0 1.86-1.51 3.37-3.37 3.37" fill="#100f0f"/></g>
  <g id="change2_1"><path d="m250.57 317.81c0 4.5-3.68 8.17-8.18 8.17h-131.82c-4.5 0-8.18-3.67-8.18-8.17l15.33-170.47c0-4.49 3.68-8.17 8.18-8.17h101.16c4.5 0 8.18 3.68 8.18 8.17l15.33 170.47" fill="#f79326"/></g>
  <g id="change3_1"><path d="m263.95 317.81c0 4.5-3.68 8.17-8.17 8.17h-131.83c-4.5 0-8.18-3.67-8.18-8.17l15.34-170.47c0-4.49 3.67-8.17 8.17-8.17h101.17c4.49 0 8.17 3.68 8.17 8.17l15.33 170.47" fill="#f9af23"/></g>
  <g id="change2_2"><path d="m171.18 160.34c0 4.32-3.5 7.82-7.81 7.82-4.32 0-7.82-3.5-7.82-7.82s3.5-7.81 7.82-7.81c4.31 0 7.81 3.49 7.81 7.81" fill="#f79326"/></g>
  <g id="change2_3"><path d="m224.17 160.34c0 4.32-3.5 7.82-7.81 7.82-4.32 0-7.82-3.5-7.82-7.82s3.5-7.81 7.82-7.81c4.31 0 7.81 3.49 7.81 7.81" fill="#f79326"/></g>
  <g id="change4_1"><path d="m215.88 163.71c-1.86 0-3.36-1.51-3.36-3.37v-31.74c0-12.49-10.16-22.65-22.66-22.65-12.49 0-22.65 10.16-22.65 22.65v31.74c0 1.86-1.51 3.37-3.37 3.37s-3.37-1.51-3.37-3.37v-31.74c0-16.2 13.19-29.385 29.39-29.385 16.21 0 29.39 13.185 29.39 29.385v31.74c0 1.86-1.51 3.37-3.37 3.37" fill="#141515"/></g>
  <g id="change1_2"><path d="m273.17 247.48c-1.86 0-3.37-1.5-3.37-3.36v-31.74c0-12.49-10.16-22.65-22.65-22.65s-22.66 10.16-22.66 22.65v31.74c0 1.86-1.51 3.36-3.37 3.36-1.85 0-3.36-1.5-3.36-3.36v-31.74c0-16.2 13.18-29.39 29.39-29.39 16.2 0 29.39 13.19 29.39 29.39v31.74c0 1.86-1.51 3.36-3.37 3.36" fill="#100f0f"/></g>
  <g id="change5_1"><path d="m309.43 317.81c0 4.5-3.68 8.17-8.18 8.17h-103.21c-4.5 0-8.18-3.67-8.18-8.17l0.1-86.69c0-4.5 3.68-8.17 8.18-8.17h101.16c4.5 0 8.18 3.67 8.18 8.17l1.95 86.69" fill="#d22b34"/></g>
  <g id="change6_1"><path d="m322.81 317.81c0 4.5-3.68 8.17-8.18 8.17h-103.21c-4.5 0-8.18-3.67-8.18-8.17l0.1-86.69c0-4.5 3.68-8.17 8.18-8.17h101.16c4.5 0 8.18 3.67 8.18 8.17l1.95 86.69" fill="#ef323d"/></g>
  <g id="change5_2"><path d="m243.43 244.12c0 4.32-3.51 7.81-7.82 7.81-4.32 0-7.82-3.49-7.82-7.81s3.5-7.82 7.82-7.82c4.31 0 7.82 3.5 7.82 7.82" fill="#d22b34"/></g>
  <g id="change5_3"><path d="m296.41 244.12c0 4.32-3.5 7.81-7.82 7.81-4.31 0-7.81-3.49-7.81-7.81s3.5-7.82 7.81-7.82c4.32 0 7.82 3.5 7.82 7.82" fill="#d22b34"/></g>
  <g id="change4_2"><path d="m288.12 247.48c-1.86 0-3.37-1.5-3.37-3.36v-31.74c0-12.49-10.16-22.65-22.65-22.65s-22.65 10.16-22.65 22.65v31.74c0 1.86-1.51 3.36-3.37 3.36s-3.37-1.5-3.37-3.36v-31.74c0-16.2 13.18-29.39 29.39-29.39 16.2 0 29.39 13.19 29.39 29.39v31.74c0 1.86-1.51 3.36-3.37 3.36" fill="#141515"/></g>
 </g>
</svg>