<?xml version="1.0" encoding="UTF-8"?><svg xmlns="http://www.w3.org/2000/svg" xmlns:xlink="http://www.w3.org/1999/xlink" height="255.1" preserveAspectRatio="xMidYMid meet" version="1.0" viewBox="84.9 85.0 255.1 255.1" width="255.1" zoomAndPan="magnify"><g><g id="change1_1"><path d="M340.04,212.56c0,57.52-38.07,106.15-90.4,122.05c-0.27,0.09-0.55,0.17-0.82,0.25 c-6.13,1.83-12.46,3.2-18.92,4.08c-0.39,0.05-0.79,0.11-1.18,0.15c-1.86,0.24-3.71,0.43-5.59,0.58c-3.5,0.3-7.06,0.45-10.66,0.45 c-0.58,0-1.17,0-1.75-0.01c-3.86-0.05-7.68-0.28-11.45-0.67c-64.24-6.6-114.35-60.89-114.35-126.88 C84.92,142.11,142.03,85,212.47,85c56.32,0,104.12,36.5,121.03,87.14c1.14,3.42,2.14,6.9,2.99,10.44v0.01 c0.18,0.74,0.35,1.49,0.52,2.24c0.35,1.6,0.67,3.2,0.96,4.83c0.09,0.42,0.16,0.85,0.24,1.28c0.05,0.33,0.11,0.65,0.15,0.98 c0.59,3.49,1.02,7.03,1.29,10.61C339.9,205.84,340.04,209.18,340.04,212.56z" fill="#ed6b44"/></g><g id="change2_1"><path d="M340.04,212.56c0,57.52-38.07,106.15-90.4,122.05l-129.3-70.48l-11.67-27.18l3.2-20.38l20.47-16.76l27.32,1 l10.59-22.48l91.73,1.12l-9.41-25.63l85.4,35.84c0.09,0.42,0.16,0.85,0.24,1.28c0.05,0.33,0.11,0.65,0.15,0.98 c0.59,3.49,1.02,7.03,1.29,10.61C339.9,205.84,340.04,209.18,340.04,212.56z" fill="#e7343a"/></g><g id="change3_2"><path d="M281.4,265.13C281.4,265.13,281.39,265.13,281.4,265.13c-0.56,0-1-0.46-1-1.01l0.54-63.32 c0-0.55,0.45-1.03,1.01-0.99c0.55,0,1,0.46,0.99,1.01l-0.54,63.32C282.39,264.69,281.95,265.13,281.4,265.13z" fill="#fff"/></g><g id="change3_3"><path d="M313.32,233.74C313.32,233.74,313.32,233.74,313.32,233.74L250,233.2c-0.55,0-1-0.46-0.99-1.01 c0-0.55,0.45-0.99,1-0.99c0,0,0.01,0,0.01,0l63.32,0.54c0.55,0,1,0.46,0.99,1.01C314.32,233.3,313.87,233.74,313.32,233.74z" fill="#fff"/></g><g id="change3_4"><path d="M303.86,256.05c-0.26,0-0.52-0.1-0.71-0.3l-44.39-45.15c-0.39-0.39-0.38-1.03,0.01-1.41 c0.39-0.39,1.03-0.38,1.41,0.01l44.39,45.15c0.39,0.39,0.38,1.03-0.01,1.41C304.37,255.95,304.12,256.05,303.86,256.05z" fill="#fff"/></g><g id="change3_5"><path d="M259.09,255.67c-0.26,0-0.52-0.1-0.71-0.3c-0.39-0.39-0.38-1.03,0.01-1.41l45.15-44.39 c0.39-0.39,1.03-0.38,1.41,0.01c0.39,0.39,0.38,1.03-0.01,1.41l-45.15,44.39C259.6,255.57,259.34,255.67,259.09,255.67z" fill="#fff"/></g><g id="change4_1"><path d="M282,193.56c-21.49-0.18-39.05,17.09-39.24,38.58s17.09,39.05,38.58,39.24 c21.49,0.18,39.05-17.09,39.24-38.58S303.48,193.75,282,193.56z M281.4,264.13c-17.48-0.15-31.54-14.44-31.39-31.93 s14.44-31.54,31.93-31.39c17.48,0.15,31.54,14.44,31.39,31.93C313.18,250.22,298.88,264.28,281.4,264.13z" fill="#3e4166"/></g><g id="change4_2"><circle cx="281.67" cy="232.47" fill="#3e4166" r="11.2"/></g><g><g id="change3_6"><path d="M143.27,265.13C143.26,265.13,143.26,265.13,143.27,265.13c-0.56,0-1-0.46-1-1.01l0.54-63.32 c0-0.55,0.45-1.03,1.01-0.99c0.55,0,1,0.46,0.99,1.01l-0.54,63.32C144.26,264.69,143.81,265.13,143.27,265.13z" fill="#fff"/></g><g id="change3_7"><path d="M175.19,233.74C175.19,233.74,175.19,233.74,175.19,233.74l-63.32-0.54c-0.55,0-1-0.46-0.99-1.01 c0-0.55,0.45-0.99,1-0.99c0,0,0.01,0,0.01,0l63.32,0.54c0.55,0,1,0.46,0.99,1.01C176.19,233.3,175.74,233.74,175.19,233.74z" fill="#fff"/></g><g id="change3_8"><path d="M165.73,256.05c-0.26,0-0.52-0.1-0.71-0.3l-44.39-45.15c-0.39-0.39-0.38-1.03,0.01-1.41 c0.39-0.39,1.03-0.38,1.41,0.01l44.39,45.15c0.39,0.39,0.38,1.03-0.01,1.41C166.24,255.95,165.98,256.05,165.73,256.05z" fill="#fff"/></g><g id="change3_9"><path d="M120.96,255.67c-0.26,0-0.52-0.1-0.71-0.3c-0.39-0.39-0.38-1.03,0.01-1.41l45.15-44.39 c0.39-0.39,1.03-0.38,1.41,0.01c0.39,0.39,0.38,1.03-0.01,1.41l-45.15,44.39C121.47,255.57,121.21,255.67,120.96,255.67z" fill="#fff"/></g><g id="change4_3"><path d="M143.86,193.56c-21.49-0.18-39.05,17.09-39.24,38.58c-0.18,21.49,17.09,39.05,38.58,39.24 c21.49,0.18,39.05-17.09,39.24-38.58C182.62,211.31,165.35,193.75,143.86,193.56z M143.27,264.13 c-17.48-0.15-31.54-14.44-31.39-31.93c0.15-17.48,14.44-31.54,31.93-31.39c17.48,0.15,31.54,14.44,31.39,31.93 C175.04,250.22,160.75,264.28,143.27,264.13z" fill="#3e4166"/></g><g id="change4_4"><circle cx="143.53" cy="232.47" fill="#3e4166" r="11.2"/></g></g><g id="change5_1"><path d="M281.67,232.77c-1.35,0-2.64-0.79-3.21-2.1l-30.47-69.84h-22.65c-1.93,0-3.5-1.57-3.5-3.5s1.57-3.5,3.5-3.5 h27.23l32.3,74.04c0.77,1.77-0.04,3.83-1.81,4.61C282.61,232.67,282.13,232.77,281.67,232.77z" fill="#74c2ed"/></g><g id="change5_3"><path d="M214.03,243.62c0,0-0.01,0-0.01,0c-0.79,0-1.53-0.38-2-1.01l-44.89-60.56c-0.56-0.76-0.65-1.77-0.22-2.61 c0.42-0.84,1.29-1.38,2.23-1.38h90.6c0.95,0,1.81,0.54,2.24,1.39c0.42,0.85,0.33,1.86-0.24,2.62l-45.71,60.56 C215.55,243.26,214.82,243.62,214.03,243.62z M174.1,183.06l39.95,53.89l40.67-53.89H174.1z" fill="#74c2ed"/></g><g id="change5_2"><path d="M214.04,243.62c-0.11,0-0.22-0.01-0.33-0.02l-70.5-9.19c-0.8-0.1-1.5-0.59-1.88-1.3 c-0.38-0.71-0.39-1.57-0.03-2.29l25.61-51.37c0.62-1.24,2.12-1.74,3.35-1.12c1.24,0.62,1.74,2.12,1.12,3.35l-24.04,48.23 l67.02,8.74c1.37,0.18,2.33,1.43,2.16,2.8C216.35,242.71,215.27,243.62,214.04,243.62z" fill="#74c2ed"/></g><g id="change3_1"><path d="M177.62,180.56h-15.63c-2.65,0-4.82-2.17-4.82-4.82v0c0-2.65,2.17-4.82,4.82-4.82h15.63 c2.65,0,4.82,2.17,4.82,4.82v0C182.44,178.39,180.27,180.56,177.62,180.56z" fill="#fff"/></g></g></svg>