<?xml version="1.0" encoding="UTF-8"?><svg xmlns="http://www.w3.org/2000/svg" xmlns:xlink="http://www.w3.org/1999/xlink" height="168.5" preserveAspectRatio="xMidYMid meet" version="1.1" viewBox="99.2 128.3 226.8 168.5" width="226.8" zoomAndPan="magnify">
 <g id="surface1">
  <g id="change1_1"><path d="m311.2 270.95c0 4.68-4.6 8.51-10.22 8.51h-176.76c-5.62 0-10.22-3.83-10.22-8.51v-134.09c0-4.68 4.6-8.52 10.22-8.52h176.76c5.62 0 10.22 3.84 10.22 8.52v134.09" fill="#c1c3c1"/></g>
  <g id="change2_1"><path d="m325.98 143.7l-20.15-15.36h-186.46l-19.733 15.36c-0.278 1.43-0.422 2.9-0.422 4.41 0 12.9 10.455 23.35 23.355 23.35 10.74 0 19.78-7.24 22.51-17.11 2.73 9.87 11.77 17.11 22.51 17.11 10.73 0 19.77-7.24 22.5-17.11 2.73 9.87 11.77 17.11 22.51 17.11s19.78-7.24 22.51-17.11c2.73 9.87 11.77 17.11 22.5 17.11 10.75 0 19.78-7.24 22.51-17.11 2.73 9.87 11.77 17.11 22.51 17.11 12.9 0 23.35-10.45 23.35-23.35 0-1.51-0.14-2.98-0.41-4.41h0.41" fill="#ef323d"/></g>
  <g id="change3_1"><path d="m325.98 143.7l-20.15-15.36h-42.6l16.47 15.36h0.28v11.09c0.04-0.15 0.1-0.29 0.14-0.44 2.73 9.87 11.77 17.11 22.51 17.11 12.9 0 23.35-10.45 23.35-23.35 0-1.51-0.14-2.98-0.41-4.41h0.41" fill="#c1282f"/></g>
  <g id="change3_2"><path d="m234.66 143.7l-7.28-15.36h-32.82l-4.39 15.36v10.88c2.8 9.75 11.78 16.88 22.43 16.88 10.54 0 19.43-6.99 22.34-16.58v-11.18h-0.28" fill="#c1282f"/></g>
  <g id="change3_3"><path d="m119.37 128.34l-19.733 15.36c-0.278 1.43-0.422 2.9-0.422 4.41 0 12.9 10.455 23.35 23.355 23.35 10.48 0 19.32-6.9 22.28-16.4v-11.36l14.97-15.36h-40.45" fill="#c1282f"/></g>
  <g id="change4_1"><path d="m229.87 188.22c0 2.93-2.38 5.31-5.31 5.31h-90.9c-2.93 0-5.3-2.38-5.3-5.31s2.37-5.3 5.3-5.3h90.9c2.93 0 5.31 2.37 5.31 5.3" fill="#fff"/></g>
  <g id="change4_2"><path d="m229.87 221.47c0 2.93-2.38 5.3-5.31 5.3h-90.9c-2.93 0-5.3-2.37-5.3-5.3s2.37-5.31 5.3-5.31h90.9c2.93 0 5.31 2.38 5.31 5.31" fill="#fff"/></g>
  <g id="change4_3"><path d="m229.87 254.71c0 2.94-2.38 5.31-5.31 5.31h-90.9c-2.93 0-5.3-2.37-5.3-5.31 0-2.92 2.37-5.3 5.3-5.3h90.9c2.93 0 5.31 2.38 5.31 5.3" fill="#fff"/></g>
  <g id="change4_4"><path d="m297.55 250.82c0 7.04-5.69 12.74-12.73 12.74h-26.88c-7.03 0-12.73-5.7-12.73-12.74v-55.17c0-7.03 5.7-12.73 12.73-12.73h26.88c7.04 0 12.73 5.7 12.73 12.73v55.17" fill="#fff"/></g>
  <g id="change5_1"><path d="m275.91 296.86l10.5-8.84-13.61-15.47 12.98-11.42-45.74-15.44 9.49 47.34 12.97-11.42 13.41 15.25" fill="#141515"/></g>
 </g>
</svg>